<?xml version="1.0" encoding="utf-8"?>
<!-- Generator: Adobe Illustrator 16.0.0, SVG Export Plug-In . SVG Version: 6.00 Build 0)  -->
<!DOCTYPE svg PUBLIC "-//W3C//DTD SVG 1.1//EN" "http://www.w3.org/Graphics/SVG/1.1/DTD/svg11.dtd">
<svg version="1.1" id="Layer_1" xmlns="http://www.w3.org/2000/svg" xmlns:xlink="http://www.w3.org/1999/xlink" x="0px" y="0px"
	 width="550.8px" height="136.061px" viewBox="0 0 550.8 136.061" enable-background="new 0 0 550.8 136.061" xml:space="preserve">
<rect x="282.9" y="15" fill-rule="evenodd" clip-rule="evenodd" fill="none" width="267.9" height="106.061"/>
<g>
	<g>
		<path fill="#39B8EA" d="M323.164,62.794h-12.025v-3.69c0-1.722-0.153-2.819-0.461-3.291s-0.82-0.708-1.538-0.708
			c-0.779,0-1.368,0.318-1.769,0.955c-0.399,0.636-0.6,1.6-0.6,2.893c0,1.662,0.225,2.914,0.675,3.754
			c0.429,0.841,1.648,1.856,3.659,3.044c5.763,3.421,9.393,6.228,10.891,8.421c1.495,2.195,2.244,5.73,2.244,10.611
			c0,3.547-0.416,6.16-1.246,7.842s-2.435,3.09-4.813,4.229c-2.379,1.138-5.146,1.707-8.304,1.707c-3.464,0-6.423-0.656-8.872-1.969
			c-2.451-1.313-4.055-2.983-4.813-5.014c-0.759-2.029-1.138-4.909-1.138-8.641v-3.26h12.025v6.059c0,1.865,0.168,3.064,0.507,3.598
			s0.938,0.799,1.799,0.799s1.502-0.338,1.923-1.014c0.42-0.678,0.629-1.682,0.629-3.014c0-2.933-0.398-4.85-1.198-5.752
			c-0.819-0.901-2.84-2.408-6.058-4.521c-3.221-2.132-5.352-3.68-6.398-4.644c-1.045-0.964-1.911-2.296-2.598-3.998
			c-0.688-1.702-1.03-3.875-1.03-6.52c0-3.813,0.486-6.601,1.461-8.365c0.973-1.763,2.547-3.142,4.721-4.137
			c2.173-0.994,4.797-1.491,7.872-1.491c3.363,0,6.229,0.543,8.596,1.63c2.369,1.086,3.937,2.456,4.705,4.105
			c0.77,1.651,1.154,4.455,1.154,8.411V62.794z"/>
		<path fill="#39B8EA" d="M356.039,71.036v9.996c0,3.67-0.185,6.36-0.554,8.072s-1.158,3.311-2.368,4.797
			c-1.21,1.487-2.763,2.584-4.658,3.291c-1.896,0.707-4.076,1.062-6.536,1.062c-2.747,0-5.073-0.304-6.981-0.907
			c-1.906-0.604-3.388-1.518-4.443-2.737c-1.057-1.22-1.81-2.696-2.261-4.429c-0.45-1.732-0.677-4.331-0.677-7.796V71.928
			c0-3.793,0.41-6.756,1.23-8.888c0.82-2.132,2.296-3.844,4.43-5.136c2.131-1.292,4.857-1.938,8.18-1.938
			c2.789,0,5.182,0.416,7.182,1.246c1.998,0.83,3.541,1.912,4.628,3.244c1.087,1.333,1.829,2.707,2.229,4.121
			C355.839,65.993,356.039,68.145,356.039,71.036z M343.615,67.96c0-2.091-0.113-3.409-0.339-3.952s-0.708-0.815-1.446-0.815
			s-1.229,0.272-1.475,0.815s-0.369,1.861-0.369,3.952v18.422c0,1.927,0.123,3.183,0.369,3.767c0.246,0.585,0.727,0.877,1.444,0.877
			c0.738,0,1.226-0.266,1.461-0.8c0.235-0.532,0.354-1.681,0.354-3.444V67.96z"/>
		<path fill="#39B8EA" d="M372.923,47.725v49.791h-12.795V47.725H372.923z"/>
		<path fill="#39B8EA" d="M405.83,56.705v40.811h-12.64l0.216-3.392c-0.861,1.377-1.923,2.409-3.184,3.098
			c-1.262,0.688-2.712,1.032-4.352,1.032c-1.866,0-3.414-0.329-4.645-0.984c-1.229-0.655-2.137-1.527-2.721-2.614
			c-0.584-1.086-0.949-2.219-1.093-3.398c-0.144-1.179-0.216-3.521-0.216-7.027V56.705h12.426v27.771
			c0,3.179,0.097,5.064,0.291,5.658c0.195,0.596,0.723,0.893,1.584,0.893c0.924,0,1.472-0.308,1.646-0.923
			c0.174-0.614,0.262-2.593,0.262-5.935V56.705H405.83z"/>
		<path fill="#39B8EA" d="M410.934,57.688v-6.427h12.455v6.427h3.353v6.459h-3.353v21.835c0,2.686,0.139,4.182,0.415,4.489
			c0.277,0.308,1.431,0.462,3.46,0.462v6.581h-5.013c-2.828,0-4.849-0.118-6.059-0.354c-1.209-0.234-2.275-0.778-3.197-1.629
			c-0.924-0.852-1.498-1.825-1.723-2.922c-0.227-1.097-0.339-3.676-0.339-7.734V64.147"/>
		<rect x="429.478" y="46.824" fill="#FFFFFF" width="12.795" height="7.39"/>
		<rect x="429.478" y="56.705" fill="#39B8EA" width="12.795" height="40.811"/>
		<path fill="#39B8EA" d="M474.84,71.036v9.996c0,3.67-0.185,6.36-0.554,8.072s-1.158,3.311-2.367,4.797
			c-1.211,1.487-2.764,2.584-4.66,3.291s-4.075,1.062-6.535,1.062c-2.748,0-5.074-0.304-6.98-0.907
			c-1.906-0.604-3.389-1.518-4.444-2.737c-1.057-1.22-1.81-2.696-2.261-4.429s-0.677-4.331-0.677-7.796V71.928
			c0-3.793,0.411-6.756,1.23-8.888c0.82-2.132,2.296-3.844,4.429-5.136c2.133-1.292,4.859-1.938,8.18-1.938
			c2.789,0,5.183,0.416,7.182,1.246c1.999,0.83,3.541,1.912,4.629,3.244c1.086,1.333,1.83,2.707,2.229,4.121
			C474.64,65.993,474.84,68.145,474.84,71.036z M462.416,67.96c0-2.091-0.113-3.409-0.338-3.952
			c-0.226-0.543-0.707-0.815-1.445-0.815s-1.23,0.272-1.477,0.815s-0.369,1.861-0.369,3.952v18.422c0,1.927,0.123,3.183,0.369,3.767
			c0.246,0.585,0.728,0.877,1.445,0.877c0.738,0,1.225-0.266,1.461-0.8c0.235-0.532,0.354-1.681,0.354-3.444V67.96z"/>
		<path fill="#39B8EA" d="M491.572,56.705l-0.216,3.76c0.901-1.499,2.004-2.624,3.306-3.374c1.301-0.75,2.804-1.125,4.505-1.125
			c2.132,0,3.876,0.503,5.229,1.507c1.352,1.005,2.224,2.271,2.613,3.798c0.389,1.527,0.584,4.075,0.584,7.643v28.601h-12.424
			V69.252c0-2.809-0.092-4.521-0.277-5.136c-0.184-0.615-0.697-0.923-1.537-0.923c-0.882,0-1.436,0.354-1.66,1.061
			c-0.227,0.707-0.339,2.599-0.339,5.673v27.587h-12.425V56.705H491.572z"/>
		<path fill="#39B8EA" d="M537.24,69.745h-11.01V67.53c0-1.886-0.107-3.08-0.322-3.583c-0.216-0.502-0.754-0.753-1.615-0.753
			c-0.697,0-1.22,0.23-1.568,0.692c-0.35,0.461-0.523,1.153-0.523,2.076c0,1.25,0.088,2.167,0.262,2.752
			c0.175,0.584,0.697,1.226,1.568,1.922s2.66,1.712,5.367,3.044c3.608,1.764,5.977,3.425,7.104,4.982
			c1.128,1.559,1.692,3.824,1.692,6.797c0,3.321-0.431,5.828-1.292,7.52s-2.303,2.994-4.32,3.905
			c-2.021,0.912-4.455,1.369-7.305,1.369c-3.158,0-5.858-0.492-8.104-1.477s-3.789-2.316-4.629-3.998
			c-0.841-1.681-1.26-4.224-1.26-7.627v-1.968h11.009v2.583c0,2.194,0.139,3.618,0.415,4.274c0.277,0.656,0.825,0.984,1.646,0.984
			c0.88,0,1.495-0.221,1.844-0.661c0.35-0.44,0.523-1.368,0.523-2.783c0-1.948-0.227-3.167-0.677-3.659
			c-0.472-0.492-2.88-1.948-7.228-4.367c-3.648-2.051-5.873-3.911-6.674-5.582c-0.799-1.671-1.198-3.654-1.198-5.951
			c0-3.26,0.43-5.663,1.291-7.211c0.861-1.548,2.322-2.742,4.382-3.583c2.062-0.841,4.455-1.261,7.182-1.261
			c2.707,0,5.008,0.344,6.904,1.031s3.352,1.594,4.367,2.721c1.016,1.128,1.631,2.174,1.845,3.137
			c0.216,0.964,0.323,2.471,0.323,4.521V69.745z"/>
	</g>
	<path fill="#FFFFFF" d="M456.672,39.384v14.779h-12.794V39.384H456.672z"/>
	<path fill="#FFFFFF" d="M471.169,31.901v22.167h-12.795V31.901H471.169z"/>
	<path fill="#FFFFFF" d="M485.328,24.606v29.556h-12.795V24.606H485.328z"/>
</g>
<g>
	<g>
		<path fill="#39B8EA" d="M0,0v136.061h282.9V0H0z M18.779,90.13c2.125,2.597,5,3.896,8.626,3.9
			c6.194-0.004,11.878-3.12,17.052-9.349c0.372,0.936,0.559,1.672,0.559,2.211c0,2.7-2.181,5.337-6.542,7.911
			c-4.361,2.575-8.834,3.862-13.421,3.862c-5.018,0-8.982-1.545-11.893-4.636c-2.911-3.089-4.366-7.319-4.366-12.69
			c0-8.482,2.627-15.771,7.879-21.868c5.253-6.096,11.535-9.145,18.846-9.145c2.979,0,5.488,0.562,7.526,1.683
			c2.038,1.122,3.058,2.493,3.058,4.113c0,1.454-0.882,3.054-2.646,4.799c-2.372-5.006-5.733-7.511-10.084-7.516
			c-4.763,0.004-8.917,2.619-12.463,7.845c-3.545,5.227-5.32,11.329-5.324,18.306C15.59,84.01,16.655,87.534,18.779,90.13z
			 M129.65,91.34c-4.096,4.635-7.723,6.953-10.878,6.953c-2.293,0-4.146-0.939-5.556-2.816c-1.412-1.876-2.117-4.328-2.117-7.355
			c0-0.996,0.104-2.242,0.306-3.723c-1.747,2.629-3.497,4.957-5.252,6.941c-4.097,4.635-7.723,6.953-10.878,6.953
			c-2.293,0-4.145-0.939-5.556-2.816c-1.411-1.876-2.117-4.328-2.117-7.355c0-1.396,0.202-3.275,0.598-5.622
			c-2.474,3.096-5.227,5.875-8.263,8.333c-6.145,4.973-11.971,7.461-17.479,7.461c-3.528,0-6.316-1.203-8.364-3.609
			c-2.048-2.405-3.072-5.692-3.072-9.86c0-6.014,1.856-11.156,5.571-15.429c3.714-4.271,8.188-6.408,13.421-6.408
			c2.528,0,4.552,0.674,6.071,2.021c1.519,1.347,2.279,3.15,2.279,5.41c0,3.709-2.112,6.996-6.336,9.855
			c-4.224,2.86-9.08,4.291-14.568,4.291c0,6.063,2.43,9.093,7.292,9.093c4.214,0,8.859-2.12,13.936-6.362
			c3.938-3.29,7.571-7.4,10.908-12.311l4.739-25.249c-0.764,0.125-1.431,0.187-1.999,0.187c-4.508,0-6.762-1.991-6.762-5.972v-0.715
			c2.352,1.41,5.008,2.115,7.967,2.115s5.546-0.778,7.762-2.333l-6.821,37.42c-0.608,3.359-0.912,5.672-0.912,6.937
			c0,3.505,1.215,5.257,3.646,5.257c2.353,0,4.718-1.404,7.1-4.215c1.911-2.254,4.806-6.561,8.679-12.906l4.838-25.774
			c-0.765,0.125-1.432,0.187-2,0.187c-4.508,0-6.762-1.991-6.762-5.972v-0.715c2.353,1.41,5.008,2.115,7.968,2.115
			s5.546-0.778,7.762-2.333l-6.821,37.42c-0.607,3.359-0.911,5.672-0.911,6.937c0,3.505,1.216,5.257,3.646,5.257
			c2.353,0,4.719-1.404,7.1-4.215c2.383-2.811,6.287-8.797,11.717-17.963l2.352,1.71C137.824,80.313,133.747,86.706,129.65,91.34z
			 M161.051,90.13c2.125,2.597,5,3.896,8.626,3.9c6.193-0.004,11.879-3.12,17.053-9.349c0.372,0.936,0.559,1.672,0.559,2.211
			c0,2.7-2.182,5.337-6.541,7.911c-4.362,2.575-8.836,3.862-13.422,3.862c-5.018,0-8.981-1.545-11.893-4.636
			c-2.91-3.089-4.366-7.319-4.366-12.69c0-8.482,2.627-15.771,7.88-21.868c5.252-6.096,11.535-9.145,18.846-9.145
			c2.979,0,5.487,0.562,7.525,1.683c2.039,1.122,3.059,2.493,3.059,4.113c0,1.454-0.883,3.054-2.646,4.799
			c-2.371-5.006-5.732-7.511-10.084-7.516c-4.764,0.004-8.918,2.619-12.463,7.845c-3.546,5.227-5.32,11.329-5.324,18.306
			C157.863,84.01,158.927,87.534,161.051,90.13z M223.126,94.964c-1.48-2.219-2.221-5.081-2.221-8.585
			c0-0.609,0.033-1.273,0.08-1.965c-1.912,2.627-3.831,4.947-5.761,6.924c-4.528,4.637-8.595,6.955-12.201,6.955
			c-2.195,0-3.964-0.758-5.307-2.272c-1.343-1.514-2.014-3.505-2.014-5.974c0-0.934,0.196-2.416,0.588-4.449l0.646-3.422
			c0.96-4.937,1.44-8.4,1.44-10.393c0-1.182-0.333-2.146-0.999-2.893c2.548-0.621,4.146-0.932,4.792-0.932
			c1.45,0,2.176,1.078,2.176,3.231c0,1.596-0.284,3.885-0.853,6.868l-1.147,6.06c-0.568,2.921-0.852,4.816-0.852,5.688
			c0,2.568,1.029,3.853,3.087,3.853c2.45,0,5.714-2.181,9.79-6.54c2.594-2.775,5.135-6.025,7.626-9.744
			c0.462-2.299,1.063-4.839,1.819-7.637l1.352-5.225h-4.969c-2.078,0-3.734,0.311-4.969,0.933c1.137-2.185,2.078-3.555,2.822-4.111
			c0.745-0.556,2.01-0.834,3.793-0.834h4.439l0.588-2.152c0.901-3.204,1.98-5.402,3.234-6.599c1.254-1.196,3.136-1.794,5.645-1.794
			c0.295,0,0.765,0.021,1.411,0.062c-1.528,2.081-3.116,5.575-4.763,10.483h15.523c2.725,0,4.802-0.374,6.232-1.124
			c-0.49,2.125-1.143,3.512-1.955,4.162c-0.813,0.65-2.328,0.975-4.542,0.975h-16.522c-0.196,0.684-0.344,1.192-0.441,1.524
			c-2.371,8.544-3.557,14.993-3.557,19.347c0,4.812,1.635,7.217,4.909,7.217c1.685,0,3.522-0.757,5.513-2.271
			c1.988-1.514,3.404-3.225,4.248-5.132c0.529,1.016,0.794,1.907,0.794,2.674c0,2.033-1.622,4.277-4.866,6.734
			c-3.244,2.458-6.198,3.688-8.863,3.688C226.522,98.293,224.605,97.184,223.126,94.964z M272.848,78.914
			c-3.087,6.2-6.414,11.882-9.981,17.046c-4.115,5.951-8.202,10.644-12.26,14.076c-4.057,3.432-7.546,5.147-10.467,5.147
			c-2.626,0-3.939-1.172-3.939-3.515c0-0.955,0.236-2.074,0.706-3.359c1.077,0.704,2.411,1.057,3.999,1.057
			c5.742,0,11.23-4.012,16.465-12.037c-0.844-5.558-2.338-11.059-4.484-16.502s-4.465-9.596-6.953-12.458
			c1.449-1.286,2.939-1.928,4.469-1.928c1.313,0,2.405,0.627,3.277,1.882c0.873,1.254,1.965,3.78,3.278,7.575
			c2.058,5.951,3.597,11.343,4.616,16.174c6.625-11.094,10.211-20.788,10.76-29.083c3.43,0.54,5.146,1.753,5.146,3.639
			C277.48,68.618,275.936,72.713,272.848,78.914z"/>
		<path fill="#39B8EA" d="M72.629,70.038c0-2.647-1.117-3.971-3.351-3.971c-2.666,0-5.126,1.51-7.38,4.529
			c-2.254,3.02-3.656,6.681-4.204,10.982c4.097-0.229,7.609-1.469,10.54-3.723C71.165,75.601,72.629,72.995,72.629,70.038z"/>
		<g>
			<path fill="none" d="M33.374,53.407c4.352,0.004,7.713,2.509,10.084,7.516c1.764-1.745,2.646-3.345,2.646-4.799
				c0-1.62-1.02-2.991-3.058-4.113c-2.039-1.121-4.547-1.683-7.526-1.683c-7.311,0-13.593,3.049-18.846,9.145
				c-5.252,6.097-7.879,13.386-7.879,21.868c0,5.371,1.456,9.602,4.366,12.69c2.911,3.091,6.875,4.636,11.893,4.636
				c4.586,0,9.06-1.287,13.421-3.862c4.361-2.574,6.542-5.211,6.542-7.911c0-0.539-0.187-1.275-0.559-2.211
				c-5.174,6.229-10.858,9.345-17.052,9.349c-3.626-0.004-6.501-1.304-8.626-3.9c-2.125-2.597-3.189-6.12-3.192-10.572
				c0.003-6.978,1.778-13.08,5.324-18.306C24.456,56.026,28.611,53.412,33.374,53.407z"/>
		</g>
		<g>
			<path fill="none" d="M127.812,88.417c-2.381,2.811-4.747,4.215-7.1,4.215c-2.43,0-3.646-1.752-3.646-5.257
				c0-1.265,0.304-3.577,0.911-6.937l6.821-37.42c-2.216,1.555-4.802,2.333-7.762,2.333s-5.615-0.705-7.968-2.115v0.715
				c0,3.981,2.254,5.972,6.762,5.972c0.568,0,1.235-0.062,2-0.187l-4.838,25.774c-3.873,6.346-6.768,10.652-8.679,12.906
				c-2.382,2.811-4.747,4.215-7.1,4.215c-2.431,0-3.646-1.752-3.646-5.257c0-1.265,0.304-3.577,0.912-6.937l6.821-37.42
				c-2.216,1.555-4.803,2.333-7.762,2.333s-5.615-0.705-7.967-2.115v0.715c0,3.981,2.253,5.972,6.762,5.972
				c0.568,0,1.235-0.062,1.999-0.187l-4.739,25.249c-3.337,4.91-6.97,9.021-10.908,12.311c-5.077,4.242-9.722,6.362-13.936,6.362
				c-4.861,0-7.292-3.03-7.292-9.093c5.488,0,10.344-1.431,14.568-4.291c4.224-2.859,6.336-6.146,6.336-9.855
				c0-2.259-0.76-4.063-2.279-5.41c-1.519-1.348-3.542-2.021-6.071-2.021c-5.233,0-9.707,2.136-13.421,6.408
				c-3.715,4.272-5.571,9.415-5.571,15.429c0,4.168,1.024,7.455,3.072,9.86c2.048,2.406,4.836,3.609,8.364,3.609
				c5.508,0,11.334-2.488,17.479-7.461c3.037-2.458,5.789-5.237,8.263-8.333c-0.396,2.347-0.598,4.226-0.598,5.622
				c0,3.027,0.706,5.479,2.117,7.355c1.411,1.877,3.263,2.816,5.556,2.816c3.156,0,6.782-2.318,10.878-6.953
				c1.755-1.984,3.505-4.313,5.252-6.941c-0.202,1.48-0.306,2.727-0.306,3.723c0,3.027,0.705,5.479,2.117,7.355
				c1.41,1.877,3.263,2.816,5.556,2.816c3.155,0,6.782-2.318,10.878-6.953c4.097-4.635,8.174-11.027,12.23-19.177l-2.352-1.71
				C134.099,79.62,130.195,85.606,127.812,88.417z M61.898,70.596c2.254-3.019,4.714-4.529,7.38-4.529
				c2.234,0,3.351,1.324,3.351,3.971c0,2.957-1.465,5.563-4.395,7.818c-2.931,2.254-6.443,3.494-10.54,3.723
				C58.243,77.277,59.645,73.616,61.898,70.596z"/>
		</g>
		<g>
			<path fill="none" d="M175.646,53.407c4.352,0.004,7.713,2.509,10.084,7.516c1.764-1.745,2.646-3.345,2.646-4.799
				c0-1.62-1.02-2.991-3.059-4.113c-2.038-1.121-4.547-1.683-7.525-1.683c-7.311,0-13.594,3.049-18.846,9.145
				c-5.253,6.097-7.88,13.386-7.88,21.868c0,5.371,1.456,9.602,4.366,12.69c2.911,3.091,6.875,4.636,11.893,4.636
				c4.586,0,9.06-1.287,13.422-3.862c4.359-2.574,6.541-5.211,6.541-7.911c0-0.539-0.187-1.275-0.559-2.211
				c-5.174,6.229-10.859,9.345-17.053,9.349c-3.626-0.004-6.501-1.304-8.626-3.9c-2.124-2.597-3.188-6.12-3.192-10.572
				c0.004-6.978,1.778-13.08,5.324-18.306C166.728,56.026,170.882,53.412,175.646,53.407z"/>
		</g>
		<g>
			<path fill="none" d="M242.604,87.872c0-0.767-0.265-1.658-0.794-2.674c-0.844,1.907-2.26,3.618-4.248,5.132
				c-1.99,1.514-3.828,2.271-5.513,2.271c-3.274,0-4.909-2.405-4.909-7.217c0-4.354,1.186-10.803,3.557-19.347
				c0.098-0.332,0.245-0.84,0.441-1.524h16.522c2.214,0,3.729-0.325,4.542-0.975c0.813-0.649,1.465-2.036,1.955-4.162
				c-1.431,0.75-3.508,1.124-6.232,1.124h-15.523c1.646-4.908,3.234-8.402,4.763-10.483c-0.646-0.041-1.116-0.062-1.411-0.062
				c-2.509,0-4.391,0.598-5.645,1.794c-1.254,1.196-2.333,3.395-3.234,6.599l-0.588,2.152h-4.439c-1.783,0-3.048,0.278-3.793,0.834
				c-0.744,0.557-1.686,1.927-2.822,4.111c1.234-0.622,2.891-0.933,4.969-0.933h4.969l-1.352,5.225
				c-0.756,2.798-1.357,5.338-1.819,7.637c-2.491,3.719-5.032,6.969-7.626,9.744c-4.076,4.359-7.34,6.54-9.79,6.54
				c-2.058,0-3.087-1.284-3.087-3.853c0-0.871,0.283-2.767,0.852-5.688l1.147-6.06c0.568-2.983,0.853-5.272,0.853-6.868
				c0-2.154-0.726-3.231-2.176-3.231c-0.646,0-2.244,0.311-4.792,0.932c0.666,0.747,0.999,1.711,0.999,2.893
				c0,1.992-0.48,5.456-1.44,10.393l-0.646,3.422c-0.392,2.033-0.588,3.516-0.588,4.449c0,2.469,0.671,4.46,2.014,5.974
				c1.343,1.515,3.111,2.272,5.307,2.272c3.606,0,7.673-2.318,12.201-6.955c1.93-1.977,3.849-4.297,5.761-6.924
				c-0.047,0.691-0.08,1.355-0.08,1.965c0,3.504,0.74,6.366,2.221,8.585c1.479,2.22,3.396,3.329,5.748,3.329
				c2.665,0,5.619-1.229,8.863-3.688C240.982,92.149,242.604,89.905,242.604,87.872z"/>
		</g>
		<g>
			<path fill="none" d="M272.333,62.987c-0.549,8.295-4.135,17.99-10.76,29.083c-1.02-4.831-2.559-10.223-4.616-16.174
				c-1.313-3.795-2.405-6.32-3.278-7.575c-0.872-1.254-1.965-1.882-3.277-1.882c-1.529,0-3.02,0.643-4.469,1.928
				c2.488,2.862,4.807,7.015,6.953,12.458s3.641,10.944,4.484,16.502c-5.234,8.025-10.723,12.037-16.465,12.037
				c-1.588,0-2.922-0.353-3.999-1.057c-0.47,1.285-0.706,2.404-0.706,3.359c0,2.343,1.313,3.515,3.939,3.515
				c2.921,0,6.41-1.716,10.467-5.147c4.058-3.433,8.145-8.125,12.26-14.076c3.567-5.164,6.895-10.846,9.981-17.046
				c3.088-6.2,4.632-10.296,4.632-12.287C277.48,64.74,275.763,63.527,272.333,62.987z"/>
		</g>
	</g>
	<g>
		<path fill-rule="evenodd" clip-rule="evenodd" fill="#FFFFFF" d="M226.801,35.833c-0.067,0.052-0.142,0.096-0.201,0.156
			c-0.997,0.994-1.991,1.99-2.983,2.987c-0.063,0.062-0.105,0.143-0.162,0.219c-5.816-5.634-12.696-8.625-20.762-8.625
			c-8.061,0-14.936,2.985-20.729,8.591c-0.055-0.052-0.117-0.109-0.178-0.169c-1-1-2-2.002-3.003-3.002
			c-0.06-0.059-0.134-0.104-0.201-0.155c0-0.032,0-0.064,0-0.097c0.062-0.048,0.128-0.092,0.185-0.146
			c1.211-1.18,2.488-2.283,3.854-3.28c3.609-2.634,7.58-4.5,11.918-5.574c1.896-0.469,3.818-0.782,5.771-0.898
			c0.385-0.023,0.768-0.061,1.15-0.092c0.82,0,1.642,0,2.463,0c0.054,0.011,0.107,0.028,0.162,0.033
			c0.993,0.086,1.987,0.15,2.977,0.261c2.022,0.228,4,0.682,5.936,1.305c5.063,1.626,9.508,4.29,13.338,7.981
			c0.148,0.144,0.311,0.275,0.466,0.411C226.801,35.768,226.801,35.8,226.801,35.833z"/>
		<path fill-rule="evenodd" clip-rule="evenodd" fill="#FFFFFF" d="M219.992,42.557c-1.121,1.118-2.242,2.235-3.379,3.367
			c-3.855-3.75-8.488-5.765-13.91-5.768c-5.424-0.003-10.059,2.006-13.922,5.758c-1.129-1.125-2.254-2.246-3.379-3.368
			C194.74,32.912,210.716,32.968,219.992,42.557z"/>
		<path fill-rule="evenodd" clip-rule="evenodd" fill="#FFFFFF" d="M213.224,49.332c-1.133,1.13-2.254,2.247-3.394,3.385
			c-1.974-1.921-4.354-2.973-7.144-2.972c-2.781,0.001-5.155,1.051-7.124,2.963c-1.138-1.135-2.262-2.258-3.386-3.381
			C197.632,43.689,207.199,43.263,213.224,49.332z"/>
		<path fill-rule="evenodd" clip-rule="evenodd" fill="#FFFFFF" d="M206.576,59.923c0,2.138-1.726,3.858-3.865,3.855
			c-2.131-0.004-3.861-1.744-3.853-3.875c0.009-2.12,1.739-3.844,3.86-3.845C204.852,56.058,206.578,57.786,206.576,59.923z"/>
	</g>
</g>
</svg>
